<?xml version="1.0" encoding="utf-8"?>
<!-- Generator: Adobe Illustrator 16.0.0, SVG Export Plug-In . SVG Version: 6.00 Build 0)  -->
<!DOCTYPE svg PUBLIC "-//W3C//DTD SVG 1.1//EN" "http://www.w3.org/Graphics/SVG/1.1/DTD/svg11.dtd">
<svg version="1.1" id="Layer_1" xmlns="http://www.w3.org/2000/svg" xmlns:xlink="http://www.w3.org/1999/xlink" x="0px" y="0px"
	 width="515.91px" height="728.5px" viewBox="0 0 515.91 728.5" enable-background="new 0 0 515.91 728.5" xml:space="preserve">
<g>
	<path d="M83.393,265.794c178.434-528.503,343.443-0.237,343.443-0.237"/>
	<g>
		<path d="M90.625,267.788c16.988-50.201,36.278-100.22,62.986-146.152c8.848-15.218,18.631-29.994,30.061-43.408
			c4.685-5.499,9.682-10.732,14.99-15.632c5.021-4.637,8.496-7.407,13.813-10.992c4.579-3.087,9.422-5.778,14.468-8.022
			c1.911-0.85-1.422,0.574,0.497-0.21c0.567-0.232,1.139-0.451,1.711-0.669c1.125-0.43,2.266-0.821,3.41-1.198
			c2.403-0.791,4.854-1.43,7.327-1.964c1.111-0.24,2.231-0.438,3.353-0.623c0.377-0.062,2.301-0.321,0.231-0.051
			c0.553-0.072,1.108-0.131,1.663-0.189c2.375-0.25,4.764-0.341,7.151-0.333c2.178,0.007,4.353,0.149,6.519,0.37
			c0.541,0.055,1.079,0.123,1.617,0.19c-2.114-0.266-0.246-0.018,0.154,0.046c1.253,0.198,2.497,0.445,3.737,0.71
			c4.486,0.96,8.861,2.398,13.104,4.133c-1.867-0.763,1.309,0.593,1.809,0.824c1.031,0.476,2.049,0.981,3.062,1.494
			c2.231,1.131,4.409,2.369,6.552,3.661c9.311,5.618,14.935,10.343,23.061,18.177c16.974,16.365,29.085,33.366,41.564,53.406
			c12.468,20.023,23.329,41.032,33.229,62.429c2.294,4.958,4.526,9.943,6.713,14.949c1.005,2.301,1.996,4.607,2.979,6.917
			c0.24,0.566,0.48,1.132,0.72,1.699c-0.713-1.686,0.08,0.196,0.188,0.452c0.54,1.287,1.075,2.577,1.609,3.867
			c3.414,8.257,6.688,16.571,9.836,24.933c3.656,9.708,7.163,19.482,10.357,29.354c0.172,0.531,0.344,1.063,0.51,1.596
			c2.877,9.2,17.358,5.271,14.465-3.987c-7.451-23.833-16.806-47.17-26.701-70.074c-18.51-42.841-40.5-85.412-70.859-121.155
			c-26.175-30.815-64.442-58.479-106.802-45.652c-24.844,7.523-44.9,26.305-60.878,46.042
			c-26.89,33.217-46.035,72.324-62.638,111.459c-11.083,26.123-20.934,52.741-30.028,79.616
			C73.052,272.989,87.542,276.899,90.625,267.788L90.625,267.788z"/>
	</g>
</g>
<g>
	<rect x="83.393" y="265.794" width="86.264" height="412.599"/>
	<g>
		<path d="M169.657,670.894c-28.755,0-57.509,0-86.264,0c2.5,2.5,5,5,7.5,7.5c0-33.795,0-67.591,0-101.386
			c0-64.273,0-128.547,0-192.82c0-39.083,0-78.167,0-117.251c0-0.38,0-0.761,0-1.142c-2.5,2.5-5,5-7.5,7.5
			c28.755,0,57.509,0,86.264,0c-2.5-2.5-5-5-7.5-7.5c0,33.795,0,67.59,0,101.385c0,64.273,0,128.547,0,192.82
			c0,39.084,0,78.168,0,117.251c0,0.381,0,0.762,0,1.143c0,9.673,15,9.673,15,0c0-33.795,0-67.591,0-101.386
			c0-64.273,0-128.547,0-192.82c0-39.083,0-78.167,0-117.251c0-0.38,0-0.761,0-1.142c0-4.088-3.412-7.5-7.5-7.5
			c-28.755,0-57.509,0-86.264,0c-4.088,0-7.5,3.412-7.5,7.5c0,33.795,0,67.59,0,101.385c0,64.273,0,128.547,0,192.82
			c0,39.084,0,78.168,0,117.251c0,0.381,0,0.762,0,1.143c0,4.089,3.412,7.5,7.5,7.5c28.755,0,57.509,0,86.264,0
			C179.33,685.894,179.33,670.894,169.657,670.894z"/>
	</g>
</g>
<g>
	<rect x="341.262" y="265.794" width="86.265" height="412.599"/>
	<g>
		<path d="M427.526,670.894c-28.755,0-57.51,0-86.265,0c2.5,2.5,5,5,7.5,7.5c0-33.795,0-67.591,0-101.386
			c0-64.273,0-128.547,0-192.82c0-39.083,0-78.167,0-117.25c0-0.381,0-0.762,0-1.143c-2.5,2.5-5,5-7.5,7.5
			c28.755,0,57.51,0,86.265,0c-2.5-2.5-5-5-7.5-7.5c0,33.795,0,67.59,0,101.385c0,64.273,0,128.547,0,192.82
			c0,39.084,0,78.168,0,117.251c0,0.381,0,0.762,0,1.143c0,9.673,15,9.673,15,0c0-33.795,0-67.591,0-101.386
			c0-64.273,0-128.547,0-192.82c0-39.083,0-78.167,0-117.25c0-0.381,0-0.762,0-1.143c0-4.088-3.411-7.5-7.5-7.5
			c-28.755,0-57.51,0-86.265,0c-4.089,0-7.5,3.412-7.5,7.5c0,33.795,0,67.59,0,101.385c0,64.273,0,128.547,0,192.82
			c0,39.084,0,78.168,0,117.251c0,0.381,0,0.762,0,1.143c0,4.089,3.411,7.5,7.5,7.5c28.755,0,57.51,0,86.265,0
			C437.199,685.894,437.199,670.894,427.526,670.894z"/>
	</g>
</g>
<g>
	<rect x="117.262" y="265.794" fill="#FFFFFF" width="280.328" height="369.157"/>
	<g>
		<path d="M397.59,619.951c-43.229,0-86.457,0-129.686,0c-49.54,0-99.079,0-148.619,0c-0.674,0-1.349,0-2.023,0c5,5,10,10,15,15
			c0-36.532,0-73.065,0-109.598c0-63.28,0-126.561,0-189.842c0-23.239,0-46.478,0-69.717c-5,5-10,10-15,15
			c43.229,0,86.457,0,129.685,0c49.54,0,99.08,0,148.62,0c0.674,0,1.349,0,2.022,0c-5-5-10-10-15-15c0,36.533,0,73.065,0,109.597
			c0,63.281,0,126.562,0,189.842c0,23.239,0,46.479,0,69.718c0,19.346,30,19.346,30,0c0-36.532,0-73.065,0-109.598
			c0-63.28,0-126.561,0-189.842c0-23.239,0-46.478,0-69.717c0-8.177-6.823-15-15-15c-43.229,0-86.457,0-129.686,0
			c-49.54,0-99.079,0-148.619,0c-0.674,0-1.349,0-2.023,0c-8.177,0-15,6.823-15,15c0,36.533,0,73.065,0,109.597
			c0,63.281,0,126.562,0,189.842c0,23.239,0,46.479,0,69.718c0,8.177,6.823,15,15,15c43.229,0,86.457,0,129.685,0
			c49.54,0,99.08,0,148.62,0c0.674,0,1.349,0,2.022,0C416.936,649.951,416.936,619.951,397.59,619.951z"/>
	</g>
</g>
</svg>
