<?xml version="1.0" encoding="utf-8"?>
<!-- Generator: Adobe Illustrator 16.0.0, SVG Export Plug-In . SVG Version: 6.00 Build 0)  -->
<!DOCTYPE svg PUBLIC "-//W3C//DTD SVG 1.1//EN" "http://www.w3.org/Graphics/SVG/1.1/DTD/svg11.dtd">
<svg version="1.1" id="Layer_1" xmlns="http://www.w3.org/2000/svg" xmlns:xlink="http://www.w3.org/1999/xlink" x="0px" y="0px"
	 width="515.91px" height="728.5px" viewBox="0 0 515.91 728.5" enable-background="new 0 0 515.91 728.5" xml:space="preserve">
<g>
	<path d="M48.967,196.123c88.152-309.7,169.672-0.139,169.672-0.139"/>
	<g>
		<path d="M56.199,198.116c7.424-25.978,15.68-51.907,26.802-76.569c6.734-14.93,14.822-30.383,25.417-42.107
			c1.896-2.097,3.926-4.069,6.059-5.923c2.029-1.764,2.378-2.033,5.438-3.876c0.954-0.575,1.942-1.091,2.94-1.582
			c0.347-0.17,2.053-0.907,0.155-0.112c0.478-0.2,0.965-0.378,1.452-0.556c0.945-0.344,1.912-0.621,2.885-0.872
			c0.678-0.175,4.277-0.704,1.811-0.413c1.863-0.219,3.746-0.201,5.612-0.04c1.684,0.145-1.821-0.288-0.149-0.032
			c0.461,0.07,0.918,0.163,1.375,0.255c1.075,0.217,2.132,0.519,3.177,0.849c0.549,0.173,3.493,1.355,1.341,0.435
			c0.902,0.386,1.781,0.825,2.65,1.279c1.966,1.026,3.828,2.244,5.625,3.539c0.298,0.215,1.741,1.333,0.18,0.114
			c0.427,0.333,0.845,0.679,1.262,1.023c0.854,0.705,1.68,1.442,2.498,2.189c1.852,1.691,3.595,3.499,5.281,5.353
			c1.642,1.806,3.198,3.689,4.711,5.604c1.297,1.643-0.912-1.205,0.361,0.477c0.385,0.508,0.762,1.021,1.139,1.534
			c0.894,1.217,1.76,2.455,2.615,3.699c6.488,9.435,11.936,19.573,16.896,29.879c8.717,18.111,15.777,37.054,22.227,57.324
			c1.937,6.088,3.819,12.209,5.449,18.389c2.464,9.346,16.934,5.376,14.464-3.987c-8.544-32.399-20.62-64.935-36.894-94.227
			c-9.561-17.21-22.479-37.265-41.338-45.333c-21.87-9.356-41.551,3.254-54.94,20.528c-10.614,13.693-18.462,29.209-25.318,45.06
			c-10.387,24.019-18.462,48.971-25.646,74.111C39.071,203.449,53.546,207.4,56.199,198.116L56.199,198.116z"/>
	</g>
</g>
<g>
	<path d="M290.779,201.525c88.152-309.701,169.672-0.139,169.672-0.139"/>
	<g>
		<path d="M298.012,203.519c7.424-25.978,15.679-51.907,26.802-76.569c6.733-14.931,14.821-30.383,25.417-42.108
			c1.896-2.097,3.926-4.069,6.06-5.923c2.028-1.764,2.378-2.033,5.437-3.876c0.954-0.575,1.942-1.09,2.941-1.582
			c0.347-0.171,2.052-0.907,0.154-0.113c0.479-0.2,0.966-0.378,1.453-0.556c0.944-0.344,1.912-0.621,2.885-0.872
			c0.679-0.175,4.277-0.703,1.811-0.413c1.862-0.22,3.746-0.201,5.612-0.04c1.684,0.146-1.821-0.288-0.149-0.032
			c0.46,0.071,0.917,0.163,1.374,0.255c1.075,0.218,2.132,0.519,3.177,0.849c0.549,0.174,3.493,1.355,1.342,0.435
			c0.902,0.386,1.78,0.826,2.649,1.279c1.966,1.026,3.828,2.243,5.625,3.539c0.298,0.215,1.74,1.333,0.179,0.115
			c0.428,0.333,0.845,0.678,1.263,1.023c0.854,0.705,1.681,1.443,2.497,2.189c1.852,1.691,3.595,3.499,5.281,5.353
			c1.643,1.806,3.198,3.689,4.711,5.604c1.298,1.642-0.911-1.205,0.362,0.477c0.384,0.508,0.761,1.021,1.138,1.534
			c0.895,1.217,1.76,2.455,2.616,3.699c6.487,9.435,11.936,19.573,16.896,29.879c8.717,18.111,15.777,37.054,22.227,57.324
			c1.938,6.088,3.82,12.209,5.449,18.389c2.465,9.346,16.934,5.376,14.465-3.987c-8.544-32.399-20.62-64.935-36.894-94.227
			c-9.562-17.21-22.479-37.266-41.338-45.333c-21.87-9.356-41.551,3.254-54.94,20.528c-10.614,13.693-18.463,29.208-25.318,45.059
			c-10.388,24.019-18.462,48.971-25.646,74.111C280.884,208.852,295.358,212.803,298.012,203.519L298.012,203.519z"/>
	</g>
</g>
<g>
	<rect x="47.967" y="196.123" width="173.656" height="469.819"/>
	<g>
		<path d="M221.623,658.441c-49.878,0-99.755,0-149.633,0c-8.007,0-16.015,0-24.023,0c2.5,2.5,5,5,7.5,7.5
			c0-30.659,0-61.319,0-91.979c0-63.375,0-126.75,0-190.125c0-53.185,0-106.37,0-159.555c0-9.387,0-18.773,0-28.16
			c-2.5,2.5-5,5-7.5,7.5c49.878,0,99.755,0,149.633,0c8.007,0,16.015,0,24.023,0c-2.5-2.5-5-5-7.5-7.5c0,30.66,0,61.319,0,91.979
			c0,63.375,0,126.75,0,190.125c0,53.185,0,106.369,0,159.555c0,9.387,0,18.773,0,28.16c0,9.673,15,9.673,15,0
			c0-30.659,0-61.319,0-91.979c0-63.375,0-126.75,0-190.125c0-53.185,0-106.37,0-159.555c0-9.387,0-18.773,0-28.16
			c0-4.088-3.412-7.5-7.5-7.5c-49.878,0-99.755,0-149.633,0c-8.007,0-16.015,0-24.023,0c-4.088,0-7.5,3.412-7.5,7.5
			c0,30.66,0,61.319,0,91.979c0,63.375,0,126.75,0,190.125c0,53.185,0,106.369,0,159.555c0,9.387,0,18.773,0,28.16
			c0,4.088,3.412,7.5,7.5,7.5c49.878,0,99.755,0,149.633,0c8.007,0,16.015,0,24.023,0
			C231.296,673.441,231.296,658.441,221.623,658.441z"/>
	</g>
</g>
<g>
	<rect x="288.787" y="200.525" width="173.656" height="469.819"/>
	<g>
		<path d="M462.443,662.844c-49.878,0-99.756,0-149.633,0c-8.008,0-16.016,0-24.023,0c2.5,2.5,5,5,7.5,7.5
			c0-30.659,0-61.319,0-91.979c0-63.375,0-126.75,0-190.125c0-53.185,0-106.37,0-159.555c0-9.387,0-18.773,0-28.16
			c-2.5,2.5-5,5-7.5,7.5c49.878,0,99.756,0,149.633,0c8.008,0,16.016,0,24.023,0c-2.5-2.5-5-5-7.5-7.5c0,30.66,0,61.319,0,91.979
			c0,63.375,0,126.75,0,190.125c0,53.185,0,106.369,0,159.555c0,9.387,0,18.773,0,28.16c0,9.673,15,9.673,15,0
			c0-30.659,0-61.319,0-91.979c0-63.375,0-126.75,0-190.125c0-53.185,0-106.37,0-159.555c0-9.387,0-18.773,0-28.16
			c0-4.088-3.411-7.5-7.5-7.5c-49.878,0-99.756,0-149.633,0c-8.008,0-16.016,0-24.023,0c-4.088,0-7.5,3.412-7.5,7.5
			c0,30.66,0,61.319,0,91.979c0,63.375,0,126.75,0,190.125c0,53.185,0,106.369,0,159.555c0,9.387,0,18.773,0,28.16
			c0,4.088,3.412,7.5,7.5,7.5c49.878,0,99.756,0,149.633,0c8.008,0,16.016,0,24.023,0
			C472.116,677.844,472.116,662.844,462.443,662.844z"/>
	</g>
</g>
<g>
	<rect x="133.803" y="222.915" fill="#FFFFFF" width="241.812" height="389.741"/>
	<g>
		<path d="M375.615,597.655c-46.442,0-92.885,0-139.328,0c-34.161,0-68.323,0-102.484,0c5,5,10,10,15,15
			c0-35.171,0-70.342,0-105.514c0-63.982,0-127.966,0-191.948c0-30.76,0-61.519,0-92.279c-5,5-10,10-15,15
			c46.442,0,92.885,0,139.328,0c34.161,0,68.323,0,102.484,0c-5-5-10-10-15-15c0,35.171,0,70.342,0,105.513
			c0,63.983,0,127.966,0,191.949c0,30.759,0,61.519,0,92.278c0,19.346,30,19.346,30,0c0-35.171,0-70.342,0-105.514
			c0-63.982,0-127.966,0-191.948c0-30.76,0-61.519,0-92.279c0-8.177-6.823-15-15-15c-46.442,0-92.885,0-139.328,0
			c-34.161,0-68.323,0-102.484,0c-8.177,0-15,6.823-15,15c0,35.171,0,70.342,0,105.513c0,63.983,0,127.966,0,191.949
			c0,30.759,0,61.519,0,92.278c0,8.177,6.823,15,15,15c46.442,0,92.885,0,139.328,0c34.161,0,68.323,0,102.484,0
			C394.961,627.655,394.961,597.655,375.615,597.655z"/>
	</g>
</g>
</svg>
