<?xml version="1.0" encoding="utf-8"?>
<!-- Generator: Adobe Illustrator 16.0.0, SVG Export Plug-In . SVG Version: 6.00 Build 0)  -->
<!DOCTYPE svg PUBLIC "-//W3C//DTD SVG 1.1//EN" "http://www.w3.org/Graphics/SVG/1.1/DTD/svg11.dtd">
<svg version="1.1" id="Layer_1" xmlns="http://www.w3.org/2000/svg" xmlns:xlink="http://www.w3.org/1999/xlink" x="0px" y="0px"
	 width="515.91px" height="728.5px" viewBox="0 0 515.91 728.5" enable-background="new 0 0 515.91 728.5" xml:space="preserve">
<g>
	<path d="M169.803,198.78c88.152-309.7,169.672-0.139,169.672-0.139"/>
	<g>
		<path d="M177.035,200.774c7.424-25.978,15.68-51.907,26.802-76.569c6.734-14.93,14.822-30.383,25.417-42.107
			c1.896-2.097,3.926-4.069,6.059-5.923c2.029-1.764,2.378-2.033,5.438-3.876c0.954-0.575,1.942-1.091,2.94-1.582
			c0.347-0.17,2.053-0.907,0.155-0.112c0.478-0.2,0.965-0.378,1.452-0.556c0.945-0.344,1.912-0.621,2.885-0.872
			c0.678-0.175,4.277-0.704,1.811-0.413c1.863-0.219,3.746-0.201,5.612-0.04c1.684,0.145-1.821-0.288-0.149-0.032
			c0.461,0.07,0.918,0.163,1.375,0.255c1.075,0.217,2.132,0.519,3.177,0.849c0.549,0.173,3.493,1.355,1.342,0.435
			c0.902,0.386,1.78,0.825,2.649,1.279c1.966,1.026,3.828,2.244,5.625,3.539c0.298,0.215,1.74,1.333,0.179,0.114
			c0.428,0.333,0.845,0.679,1.263,1.023c0.854,0.705,1.681,1.442,2.497,2.189c1.852,1.691,3.595,3.499,5.281,5.353
			c1.643,1.806,3.198,3.689,4.711,5.604c1.298,1.643-0.911-1.205,0.362,0.477c0.384,0.508,0.761,1.021,1.138,1.534
			c0.895,1.217,1.76,2.455,2.616,3.699c6.487,9.435,11.936,19.573,16.896,29.879c8.717,18.111,15.777,37.054,22.227,57.324
			c1.938,6.088,3.82,12.209,5.449,18.389c2.465,9.346,16.934,5.376,14.465-3.987c-8.544-32.399-20.62-64.935-36.894-94.227
			c-9.562-17.21-22.479-37.265-41.338-45.333c-21.87-9.356-41.551,3.254-54.941,20.528c-10.614,13.693-18.462,29.209-25.318,45.06
			c-10.387,24.019-18.462,48.971-25.646,74.111C159.907,206.107,174.382,210.058,177.035,200.774L177.035,200.774z"/>
	</g>
</g>
<g>
	<path d="M74.975,254.553c32.649-113.115,56.558,0,56.558,0"/>
	<g>
		<path d="M82.207,256.547c2.916-10.002,6.061-20.023,10.471-29.482c2.671-5.731,5.34-10.717,9.631-14.458
			c-1.333,1.162,0.789-0.462,1.236-0.707c0.746-0.358,0.597-0.304-0.448,0.164c0.428-0.166,0.875-0.271,1.321-0.375
			c-2.254,0.521-0.227,0.072,0.578,0.133c-2.233-0.169-0.944-0.103-0.333,0.066c1.512,0.418-1.62-0.794-0.174-0.111
			c0.694,0.329,1.335,0.764,1.958,1.209c-1.82-1.299,0.346,0.417,0.737,0.807c0.642,0.639,1.225,1.335,1.797,2.037
			c-1.185-1.452,0.899,1.348,1.214,1.832c1.161,1.787,2.174,3.667,3.137,5.566c1.208,2.38,2.097,4.476,2.565,5.63
			c1.74,4.291,3.216,8.689,4.567,13.116c1.464,4.798,2.793,9.665,3.836,14.573c2.008,9.46,16.467,5.447,14.464-3.987
			c-3.411-16.067-8.56-33.843-18.826-46.891c-6.435-8.178-17.267-12.073-26.254-5.221c-5.768,4.397-9.676,10.542-12.934,16.94
			c-5.667,11.129-9.523,23.219-13.007,35.172C65.03,261.868,79.506,265.814,82.207,256.547L82.207,256.547z"/>
	</g>
</g>
<g>
	<path d="M378.852,254.803c28.14-113.115,56.558,0,56.558,0"/>
	<g>
		<path d="M386.084,256.796c2.525-10.038,5.242-20.208,9.336-29.743c2.449-5.704,5.134-10.917,9.103-14.388
			c-1.365,1.194,0.72-0.397,1.188-0.644c-1.855,0.98,0.178,0.001,0.858-0.135c-2.865,0.575,1.948,0.49-0.974,0.02
			c0.623,0.1,2.836,1.037,0.717,0.077c0.718,0.326,1.384,0.761,2.032,1.206c-1.795-1.231,0.443,0.435,0.844,0.817
			c0.676,0.645,1.294,1.348,1.9,2.056c0.187,0.218,1.373,1.779,0.301,0.352c0.372,0.496,0.724,1.007,1.075,1.518
			c8.047,11.678,12.121,24.622,15.713,38.864c2.364,9.375,16.831,5.396,14.465-3.987c-4.103-16.265-10.004-33.696-20.574-46.904
			c-6.37-7.959-17.31-12.103-26.179-5.389c-5.71,4.322-9.44,10.46-12.469,16.854c-5.336,11.265-8.769,23.389-11.801,35.438
			C369.258,262.193,383.725,266.173,386.084,256.796L386.084,256.796z"/>
	</g>
</g>
<rect x="169.803" y="202.915" stroke="#000000" stroke-width="14" stroke-miterlimit="10" width="170.574" height="71.318"/>
<g>
	<rect x="73.869" y="254.553" width="59.664" height="412.381"/>
	<g>
		<path d="M133.533,659.435c-19.888,0-39.776,0-59.664,0c2.5,2.5,5,5,7.5,7.5c0-33.777,0-67.555,0-101.332
			c0-64.239,0-128.479,0-192.719c0-39.063,0-78.126,0-117.189c0-0.38,0-0.761,0-1.142c-2.5,2.5-5,5-7.5,7.5
			c19.888,0,39.776,0,59.664,0c-2.5-2.5-5-5-7.5-7.5c0,33.777,0,67.555,0,101.332c0,64.24,0,128.479,0,192.718
			c0,39.063,0,78.126,0,117.189c0,0.381,0,0.761,0,1.142c0,9.673,15,9.673,15,0c0-33.777,0-67.555,0-101.332
			c0-64.239,0-128.479,0-192.719c0-39.063,0-78.126,0-117.189c0-0.38,0-0.761,0-1.142c0-4.088-3.412-7.5-7.5-7.5
			c-19.888,0-39.776,0-59.664,0c-4.088,0-7.5,3.412-7.5,7.5c0,33.777,0,67.555,0,101.332c0,64.24,0,128.479,0,192.718
			c0,39.063,0,78.126,0,117.189c0,0.381,0,0.761,0,1.142c0,4.089,3.412,7.5,7.5,7.5c19.888,0,39.776,0,59.664,0
			C143.206,674.435,143.206,659.435,133.533,659.435z"/>
	</g>
</g>
<g>
	<rect x="377.069" y="254.553" width="59.664" height="412.381"/>
	<g>
		<path d="M436.733,659.435c-19.888,0-39.776,0-59.664,0c2.5,2.5,5,5,7.5,7.5c0-33.777,0-67.555,0-101.332
			c0-64.239,0-128.479,0-192.719c0-39.063,0-78.126,0-117.189c0-0.38,0-0.761,0-1.142c-2.5,2.5-5,5-7.5,7.5
			c19.888,0,39.776,0,59.664,0c-2.5-2.5-5-5-7.5-7.5c0,33.777,0,67.555,0,101.332c0,64.24,0,128.479,0,192.718
			c0,39.063,0,78.126,0,117.189c0,0.381,0,0.761,0,1.142c0,9.673,15,9.673,15,0c0-33.777,0-67.555,0-101.332
			c0-64.239,0-128.479,0-192.719c0-39.063,0-78.126,0-117.189c0-0.38,0-0.761,0-1.142c0-4.088-3.412-7.5-7.5-7.5
			c-19.888,0-39.776,0-59.664,0c-4.089,0-7.5,3.412-7.5,7.5c0,33.777,0,67.555,0,101.332c0,64.24,0,128.479,0,192.718
			c0,39.063,0,78.126,0,117.189c0,0.381,0,0.761,0,1.142c0,4.089,3.411,7.5,7.5,7.5c19.888,0,39.776,0,59.664,0
			C446.406,674.435,446.406,659.435,436.733,659.435z"/>
	</g>
</g>
<g>
	<rect x="169.352" y="608.658" width="170.574" height="52.001"/>
	<g>
		<path d="M339.926,653.159c-49.886,0-99.772,0-149.659,0c-6.972,0-13.944,0-20.916,0c2.5,2.5,5,5,7.5,7.5
			c0-17.334,0-34.667,0-52.001c-2.5,2.5-5,5-7.5,7.5c49.886,0,99.772,0,149.658,0c6.973,0,13.944,0,20.916,0c-2.5-2.5-5-5-7.5-7.5
			c0,17.334,0,34.667,0,52.001c0,9.673,15,9.673,15,0c0-17.334,0-34.667,0-52.001c0-4.088-3.411-7.5-7.5-7.5
			c-49.886,0-99.772,0-149.659,0c-6.972,0-13.944,0-20.916,0c-4.088,0-7.5,3.412-7.5,7.5c0,17.334,0,34.667,0,52.001
			c0,4.089,3.412,7.5,7.5,7.5c49.886,0,99.772,0,149.658,0c6.973,0,13.944,0,20.916,0
			C349.599,668.159,349.599,653.159,339.926,653.159z"/>
	</g>
</g>
<g>
	<rect x="111.688" y="268.495" fill="#FFFFFF" width="295.214" height="344.262"/>
	<g>
		<path d="M406.901,597.757c-42.062,0-84.122,0-126.184,0c-53.742,0-107.484,0-161.226,0c-2.602,0-5.203,0-7.804,0c5,5,10,10,15,15
			c0-38.232,0-76.465,0-114.697c0-61.551,0-123.101,0-184.651c0-14.971,0-29.942,0-44.914c-5,5-10,10-15,15
			c42.061,0,84.122,0,126.183,0c53.742,0,107.484,0,161.226,0c2.602,0,5.203,0,7.805,0c-5-5-10-10-15-15
			c0,38.232,0,76.465,0,114.697c0,61.551,0,123.102,0,184.652c0,14.971,0,29.942,0,44.913c0,19.346,30,19.346,30,0
			c0-38.232,0-76.465,0-114.697c0-61.551,0-123.101,0-184.651c0-14.971,0-29.942,0-44.914c0-8.177-6.823-15-15-15
			c-42.062,0-84.122,0-126.184,0c-53.742,0-107.484,0-161.226,0c-2.602,0-5.203,0-7.804,0c-8.177,0-15,6.823-15,15
			c0,38.232,0,76.465,0,114.697c0,61.551,0,123.102,0,184.652c0,14.971,0,29.942,0,44.913c0,8.177,6.823,15,15,15
			c42.061,0,84.122,0,126.183,0c53.742,0,107.484,0,161.226,0c2.602,0,5.203,0,7.805,0
			C426.247,627.757,426.247,597.757,406.901,597.757z"/>
	</g>
</g>
</svg>
